# xmcd
#
# Track frame offsets: 
#        150
#        22264
#        41027
#        69210
#        101471
#        129999
#        157044
#        213116
#
# Disc length: 3757 seconds
#
# Revision: 1
# Processed by: cddbd v1.5.2PL0 Copyright (c) Steve Scherf et al.
# Submitted via: ExactAudioCopy v1.0b3
#
DISCID=660eab08
DTITLE=Steve Lukather and Edgar Winter - An Odd Couple Live
DYEAR=2000
DGENRE=Rock
TTITLE0=Smell Yourself
TTITLE1=Texas
TTITLE2=Song For Jeff
TTITLE3=Redhouse
TTITLE4=Fly Away
TTITLE5=Rock Medley: Johnny B Good, Whole Lotta Shakin', Long Tall Sal
TTITLE5=ly
TTITLE6=Tobacco Road
TTITLE7=Frankenstein
EXTD=
EXTT0=
EXTT1=
EXTT2=
EXTT3=
EXTT4=
EXTT5=
EXTT6=
EXTT7=
PLAYORDER=
